<?xml version="1.0" encoding="UTF-8" standalone="no"?>
<!-- Created with Inkscape (http://www.inkscape.org/) -->

<svg
   width="69.209724mm"
   height="9.7324572mm"
   viewBox="0 0 69.209724 9.7324572"
   version="1.1"
   id="svg1"
   inkscape:version="1.1.2 (0a00cf5339, 2022-02-04)"
   sodipodi:docname="ragambahasa_logo_dark.svg"
   xmlns:inkscape="http://www.inkscape.org/namespaces/inkscape"
   xmlns:sodipodi="http://sodipodi.sourceforge.net/DTD/sodipodi-0.dtd"
   xmlns="http://www.w3.org/2000/svg"
   xmlns:svg="http://www.w3.org/2000/svg">
  <sodipodi:namedview
     id="namedview1"
     pagecolor="#ffffff"
     bordercolor="#000000"
     borderopacity="0.25"
     inkscape:showpageshadow="2"
     inkscape:pageopacity="0.0"
     inkscape:pagecheckerboard="0"
     inkscape:deskcolor="#d1d1d1"
     inkscape:document-units="mm"
     inkscape:zoom="2.114039"
     inkscape:cx="146.87525"
     inkscape:cy="125.11595"
     inkscape:window-width="1920"
     inkscape:window-height="1029"
     inkscape:window-x="1920"
     inkscape:window-y="0"
     inkscape:window-maximized="1"
     inkscape:current-layer="layer1"
     inkscape:pageshadow="2"
     showgrid="false" />
  <defs
     id="defs1" />
  <g
     inkscape:label="Layer 1"
     inkscape:groupmode="layer"
     id="layer1">
    <g
       id="g1"
       transform="translate(-34.660417,-129.91042)">
      <path
         id="path22"
         style="fill:#ffffff;fill-opacity:1;stroke:#ffffff;stroke-width:0.529167;stroke-dasharray:none;stroke-opacity:1"
         d="m 46.49179,137.60273 c 0.337043,0 0.631871,-0.2704 0.661196,-0.60616 l 0.543039,-6.21581 c 0.02933,-0.33577 -0.21854,-0.60576 -0.555583,-0.60576 h -3.944516 c -0.337043,0 -0.631871,0.26999 -0.661196,0.60576 l -0.297821,3.40795 c -0.370219,0.84786 -0.830405,1.15347 -1.179147,1.66998 -0.09873,0.14624 0.495079,0.15752 1.022952,0.11897 l -0.08902,1.01891 c -0.02933,0.33576 0.218539,0.60616 0.555583,0.60616 z"
         sodipodi:nodetypes="sccssccsccss" />
      <g
         aria-label="A"
         transform="skewX(-6.1943137)"
         id="text22"
         style="font-size:4.93431px;fill:#e5261f;stroke:#e5261f;stroke-width:0.20718;stroke-linecap:round;stroke-linejoin:round">
        <path
           d="m 57.848036,135.7269 1.342132,-3.67606 h 0.424351 l 1.342132,3.67606 h -0.414482 l -0.315796,-0.89805 h -1.643125 l -0.32073,0.89805 z m 0.863504,-1.26812 h 1.376673 l -0.745081,-2.11188 h 0.118423 z"
           style="font-family:'Plus Jakarta Sans';-inkscape-font-specification:'Plus Jakarta Sans'"
           id="path832" />
      </g>
      <path
         id="path21"
         style="fill:#ffffff;fill-opacity:1;stroke:#ffffff;stroke-width:0.529167;stroke-dasharray:none;stroke-opacity:1"
         d="m 36.131339,131.80923 c -0.337043,0 -0.631871,0.2704 -0.661196,0.60617 l -0.543039,6.21581 c -0.02933,0.33576 0.21854,0.60575 0.555583,0.60575 h 3.944515 c 0.337044,0 0.631871,-0.26999 0.661196,-0.60575 l 0.297822,-3.40796 c 0.551759,-0.64082 1.230674,-1.39762 1.179146,-1.66998 -0.01658,-0.0877 -0.67139,0.0806 -1.022952,-0.11897 l 0.08902,-1.0189 c 0.02933,-0.33577 -0.218539,-0.60617 -0.555583,-0.60617 z"
         sodipodi:nodetypes="sccssccsccss" />
      <path
         d="m 36.633043,135.84438 c 0.139571,-0.84854 0.242976,-1.59204 0.229769,-1.65223 -0.02142,-0.0977 -0.05245,-0.0983 -0.289203,-0.006 -0.310147,0.12126 -0.321555,0.12284 -0.308407,0.0429 0.01335,-0.0812 0.859661,-0.43194 1.042098,-0.43194 0.102744,0 0.147313,0.0605 0.155624,0.21116 0.0064,0.11614 0.01711,0.21064 0.02385,0.20998 0.0067,-6.3e-4 0.299493,-0.11098 0.650632,-0.24517 0.785668,-0.30026 1.014772,-0.31437 1.06839,-0.0658 0.02142,0.0993 -0.08315,0.92285 -0.232378,1.83009 l -0.271325,1.64955 h -0.281552 -0.281553 l 0.218363,-1.32756 c 0.1201,-0.73015 0.222499,-1.47788 0.227523,-1.66161 0.009,-0.32733 0.0046,-0.33333 -0.215,-0.29762 -0.123289,0.02 -0.385314,0.10148 -0.582279,0.18096 l -0.358114,0.14452 -0.243545,1.48065 -0.243546,1.48066 h -0.281553 -0.281555 z"
         style="fill:#e5261f;fill-opacity:1;stroke-width:0.266034"
         id="path23" />
      <g
         id="g27"
         transform="translate(24.584193,99.319808)">
        <g
           aria-label="Ragam"
           id="text23"
           style="font-size:8.04117px;fill:#f9f9f9;stroke-width:0.670097">
          <path
             d="m 25.158008,38.554008 v -5.990671 h 2.179157 q 0.603087,0 1.061434,0.225153 0.458347,0.217111 0.715664,0.643293 0.265359,0.418141 0.265359,1.005146 0,0.61917 -0.313606,1.061435 -0.305564,0.442264 -0.82824,0.643293 l 1.383081,2.412351 H 28.54334 l -1.471534,-2.61338 0.61917,0.361853 h -1.58411 v 2.251527 z m 0.948858,-3.09585 h 1.246381 q 0.329688,0 0.570923,-0.128659 0.241235,-0.128658 0.369894,-0.353811 0.1367,-0.233194 0.1367,-0.5468 0,-0.313605 -0.1367,-0.538758 Q 28.165405,33.656936 27.92417,33.536318 27.682935,33.40766 27.353247,33.40766 h -1.246381 z"
             style="font-weight:600;font-family:'Plus Jakarta Sans';-inkscape-font-specification:'Plus Jakarta Sans, Semi-Bold'"
             id="path835" />
          <path
             d="m 31.631144,38.650503 q -0.442264,0 -0.779994,-0.152783 -0.329688,-0.160823 -0.514634,-0.434223 -0.184947,-0.281441 -0.184947,-0.659376 0,-0.353811 0.152782,-0.635252 0.160823,-0.281441 0.490511,-0.474429 0.329688,-0.192988 0.828241,-0.2734 l 1.51174,-0.249276 v 0.715664 l -1.334834,0.233194 q -0.361853,0.06433 -0.530718,0.233194 -0.168864,0.160823 -0.168864,0.41814 0,0.249277 0.184947,0.4101 0.192988,0.152782 0.490511,0.152782 0.369894,0 0.643294,-0.160823 0.281441,-0.160823 0.434223,-0.426182 0.152782,-0.2734 0.152782,-0.603088 v -1.117722 q 0,-0.321647 -0.241235,-0.522676 -0.233194,-0.209071 -0.627211,-0.209071 -0.361853,0 -0.635253,0.192988 -0.265358,0.184947 -0.394017,0.48247 l -0.75587,-0.377935 q 0.120617,-0.321646 0.394017,-0.562882 0.2734,-0.249276 0.635253,-0.385976 0.369893,-0.1367 0.779993,-0.1367 0.514635,0 0.908652,0.192988 0.402059,0.192989 0.61917,0.538759 0.225153,0.337729 0.225153,0.788035 v 2.926985 H 33.04639 v -0.788034 l 0.184947,0.02412 q -0.152782,0.265359 -0.394018,0.458347 -0.233193,0.192988 -0.538758,0.297523 -0.297523,0.104536 -0.667417,0.104536 z"
             style="font-weight:600;font-family:'Plus Jakarta Sans';-inkscape-font-specification:'Plus Jakarta Sans, Semi-Bold'"
             id="path837" />
          <path
             d="m 37.075009,40.323066 q -0.474429,0 -0.876488,-0.152782 -0.402058,-0.152783 -0.69154,-0.426182 -0.289483,-0.265359 -0.434224,-0.627212 l 0.836282,-0.34577 q 0.112576,0.305565 0.4101,0.506594 0.305564,0.201029 0.747829,0.201029 0.34577,0 0.61917,-0.1367 0.273399,-0.128659 0.434223,-0.385976 0.160823,-0.249276 0.160823,-0.603088 v -0.981023 l 0.160824,0.184947 q -0.225153,0.418141 -0.627212,0.635253 -0.394017,0.217111 -0.892569,0.217111 -0.603088,0 -1.085558,-0.281441 -0.482471,-0.28144 -0.763912,-0.771952 -0.273399,-0.490511 -0.273399,-1.10164 0,-0.61917 0.273399,-1.10164 0.281441,-0.482471 0.75587,-0.763912 0.474429,-0.281441 1.085558,-0.281441 0.498553,0 0.884529,0.217112 0.394017,0.20907 0.643294,0.611129 l -0.120618,0.225153 v -0.9569 h 0.860405 v 4.149244 q 0,0.562882 -0.273399,1.005146 -0.265359,0.450306 -0.739788,0.707623 -0.474429,0.257318 -1.093599,0.257318 z m -0.04825,-2.758121 q 0.361852,0 0.643293,-0.168865 0.281441,-0.176906 0.442265,-0.466388 0.168864,-0.297523 0.168864,-0.667417 0,-0.369894 -0.168864,-0.667417 -0.168865,-0.297523 -0.450306,-0.466388 -0.281441,-0.176906 -0.635252,-0.176906 -0.369894,0 -0.659376,0.176906 -0.289482,0.168865 -0.458347,0.466388 -0.160823,0.289482 -0.160823,0.667417 0,0.361853 0.160823,0.659376 0.168865,0.297523 0.458347,0.474429 0.289482,0.168865 0.659376,0.168865 z"
             style="font-weight:600;font-family:'Plus Jakarta Sans';-inkscape-font-specification:'Plus Jakarta Sans, Semi-Bold'"
             id="path839" />
          <path
             d="m 41.54589,38.650503 q -0.442264,0 -0.779993,-0.152783 -0.329688,-0.160823 -0.514635,-0.434223 -0.184947,-0.281441 -0.184947,-0.659376 0,-0.353811 0.152782,-0.635252 0.160824,-0.281441 0.490512,-0.474429 0.329688,-0.192988 0.82824,-0.2734 l 1.51174,-0.249276 v 0.715664 l -1.334834,0.233194 q -0.361853,0.06433 -0.530717,0.233194 -0.168865,0.160823 -0.168865,0.41814 0,0.249277 0.184947,0.4101 0.192988,0.152782 0.490511,0.152782 0.369894,0 0.643294,-0.160823 0.281441,-0.160823 0.434223,-0.426182 0.152782,-0.2734 0.152782,-0.603088 v -1.117722 q 0,-0.321647 -0.241235,-0.522676 -0.233194,-0.209071 -0.627211,-0.209071 -0.361853,0 -0.635253,0.192988 -0.265358,0.184947 -0.394017,0.48247 l -0.75587,-0.377935 q 0.120618,-0.321646 0.394018,-0.562882 0.273399,-0.249276 0.635252,-0.385976 0.369894,-0.1367 0.779993,-0.1367 0.514635,0 0.908653,0.192988 0.402058,0.192989 0.61917,0.538759 0.225153,0.337729 0.225153,0.788035 v 2.926985 h -0.868447 v -0.788034 l 0.184947,0.02412 q -0.152782,0.265359 -0.394017,0.458347 -0.233194,0.192988 -0.538759,0.297523 -0.297523,0.104536 -0.667417,0.104536 z"
             style="font-weight:600;font-family:'Plus Jakarta Sans';-inkscape-font-specification:'Plus Jakarta Sans, Semi-Bold'"
             id="path841" />
          <path
             d="m 44.89101,38.554008 v -4.350273 h 0.868446 v 0.940817 L 45.64688,34.999811 q 0.1367,-0.442264 0.498552,-0.667417 0.361853,-0.225153 0.828241,-0.225153 0.522676,0 0.924734,0.281441 0.4101,0.2734 0.5468,0.731747 l -0.257318,0.02412 q 0.192988,-0.522676 0.587006,-0.779993 0.402058,-0.257318 0.916693,-0.257318 0.450306,0 0.812158,0.209071 0.369894,0.20907 0.587006,0.578964 0.217111,0.369894 0.217111,0.844323 v 2.814409 h -0.908652 v -2.565133 q 0,-0.329688 -0.120617,-0.554841 -0.112577,-0.233193 -0.321647,-0.353811 -0.201029,-0.128659 -0.474429,-0.128659 -0.2734,0 -0.48247,0.128659 -0.209071,0.120618 -0.329688,0.353811 -0.120618,0.233194 -0.120618,0.554841 v 2.565133 h -0.900611 v -2.565133 q 0,-0.329688 -0.120618,-0.554841 -0.112576,-0.233193 -0.321646,-0.353811 -0.20103,-0.128659 -0.482471,-0.128659 -0.273399,0 -0.48247,0.128659 -0.20907,0.120618 -0.329688,0.353811 -0.112576,0.233194 -0.112576,0.554841 v 2.565133 z"
             style="font-weight:600;font-family:'Plus Jakarta Sans';-inkscape-font-specification:'Plus Jakarta Sans, Semi-Bold'"
             id="path843" />
        </g>
        <g
           aria-label="Bahasa"
           id="text24"
           style="font-size:8.04117px;fill:#f9f9f9;stroke-width:0.670097">
          <path
             d="m 52.098777,38.554008 v -5.990671 h 2.524927 q 0.562882,0 0.972982,0.201029 0.410099,0.192988 0.627211,0.562882 0.217112,0.361853 0.217112,0.860405 0,0.434223 -0.225153,0.796076 -0.217112,0.353811 -0.6835,0.562882 v -0.402059 q 0.4101,0.160824 0.667417,0.4101 0.257318,0.241235 0.369894,0.5468 0.120618,0.305564 0.120618,0.643293 0,0.844323 -0.554841,1.326793 -0.546799,0.48247 -1.503699,0.48247 z m 0.948858,-0.844322 h 1.656481 q 0.474429,0 0.75587,-0.257318 0.281441,-0.265358 0.281441,-0.699582 0,-0.442264 -0.281441,-0.699581 -0.281441,-0.265359 -0.75587,-0.265359 h -1.656481 z m 0,-2.758122 h 1.600193 q 0.385976,0 0.61917,-0.217111 0.233194,-0.225153 0.233194,-0.587006 0,-0.361852 -0.233194,-0.562882 -0.233194,-0.201029 -0.61917,-0.201029 h -1.600193 z"
             style="font-weight:600;font-family:'Plus Jakarta Sans';-inkscape-font-specification:'Plus Jakarta Sans, Semi-Bold'"
             id="path846" />
          <path
             d="m 58.877478,38.650503 q -0.442264,0 -0.779993,-0.152783 -0.329688,-0.160823 -0.514635,-0.434223 -0.184947,-0.281441 -0.184947,-0.659376 0,-0.353811 0.152782,-0.635252 0.160824,-0.281441 0.490512,-0.474429 0.329688,-0.192988 0.82824,-0.2734 l 1.51174,-0.249276 v 0.715664 l -1.334834,0.233194 q -0.361853,0.06433 -0.530717,0.233194 -0.168865,0.160823 -0.168865,0.41814 0,0.249277 0.184947,0.4101 0.192988,0.152782 0.490512,0.152782 0.369893,0 0.643293,-0.160823 0.281441,-0.160823 0.434223,-0.426182 0.152783,-0.2734 0.152783,-0.603088 v -1.117722 q 0,-0.321647 -0.241236,-0.522676 -0.233193,-0.209071 -0.627211,-0.209071 -0.361852,0 -0.635252,0.192988 -0.265359,0.184947 -0.394018,0.48247 l -0.75587,-0.377935 q 0.120618,-0.321646 0.394018,-0.562882 0.2734,-0.249276 0.635252,-0.385976 0.369894,-0.1367 0.779994,-0.1367 0.514635,0 0.908652,0.192988 0.402058,0.192989 0.61917,0.538759 0.225153,0.337729 0.225153,0.788035 v 2.926985 h -0.868447 v -0.788034 l 0.184947,0.02412 q -0.152782,0.265359 -0.394017,0.458347 -0.233194,0.192988 -0.538758,0.297523 -0.297524,0.104536 -0.667418,0.104536 z"
             style="font-weight:600;font-family:'Plus Jakarta Sans';-inkscape-font-specification:'Plus Jakarta Sans, Semi-Bold'"
             id="path848" />
          <path
             d="m 62.222598,38.554008 v -6.087165 h 0.908653 v 2.589256 L 62.98651,34.943523 q 0.160823,-0.4101 0.514634,-0.61917 0.353812,-0.217112 0.8202,-0.217112 0.48247,0 0.852364,0.209071 0.369894,0.20907 0.578964,0.578964 0.209071,0.369894 0.209071,0.844323 v 2.814409 h -0.900612 v -2.565133 q 0,-0.329688 -0.128658,-0.554841 -0.120618,-0.233193 -0.337729,-0.353811 -0.217112,-0.128659 -0.498553,-0.128659 -0.2734,0 -0.498553,0.128659 -0.217111,0.120618 -0.34577,0.353811 -0.120617,0.233194 -0.120617,0.554841 v 2.565133 z"
             style="font-weight:600;font-family:'Plus Jakarta Sans';-inkscape-font-specification:'Plus Jakarta Sans, Semi-Bold'"
             id="path850" />
          <path
             d="m 68.237381,38.650503 q -0.442264,0 -0.779993,-0.152783 -0.329688,-0.160823 -0.514635,-0.434223 -0.184947,-0.281441 -0.184947,-0.659376 0,-0.353811 0.152782,-0.635252 0.160824,-0.281441 0.490512,-0.474429 0.329688,-0.192988 0.82824,-0.2734 l 1.51174,-0.249276 v 0.715664 l -1.334834,0.233194 q -0.361853,0.06433 -0.530717,0.233194 -0.168865,0.160823 -0.168865,0.41814 0,0.249277 0.184947,0.4101 0.192988,0.152782 0.490511,0.152782 0.369894,0 0.643294,-0.160823 0.281441,-0.160823 0.434223,-0.426182 0.152782,-0.2734 0.152782,-0.603088 v -1.117722 q 0,-0.321647 -0.241235,-0.522676 -0.233194,-0.209071 -0.627211,-0.209071 -0.361853,0 -0.635252,0.192988 -0.265359,0.184947 -0.394018,0.48247 l -0.75587,-0.377935 q 0.120618,-0.321646 0.394018,-0.562882 0.273399,-0.249276 0.635252,-0.385976 0.369894,-0.1367 0.779994,-0.1367 0.514634,0 0.908652,0.192988 0.402058,0.192989 0.61917,0.538759 0.225153,0.337729 0.225153,0.788035 v 2.926985 h -0.868447 v -0.788034 l 0.184947,0.02412 q -0.152782,0.265359 -0.394017,0.458347 -0.233194,0.192988 -0.538759,0.297523 -0.297523,0.104536 -0.667417,0.104536 z"
             style="font-weight:600;font-family:'Plus Jakarta Sans';-inkscape-font-specification:'Plus Jakarta Sans, Semi-Bold'"
             id="path852" />
          <path
             d="m 73.190736,38.650503 q -0.667417,0 -1.174011,-0.329688 -0.498553,-0.329688 -0.699582,-0.884529 l 0.699582,-0.329688 q 0.176906,0.369894 0.48247,0.587005 0.313606,0.217112 0.691541,0.217112 0.321647,0 0.522676,-0.144741 0.201029,-0.144741 0.201029,-0.394018 0,-0.160823 -0.08845,-0.257317 -0.08845,-0.104535 -0.225153,-0.168865 -0.128658,-0.06433 -0.265358,-0.09649 l -0.6835,-0.192988 q -0.562882,-0.160823 -0.844322,-0.48247 -0.2734,-0.329688 -0.2734,-0.763911 0,-0.394017 0.201029,-0.683499 0.201029,-0.297524 0.554841,-0.458347 0.353811,-0.160824 0.796076,-0.160824 0.595046,0 1.061434,0.297524 0.466388,0.289482 0.659376,0.812158 l -0.699582,0.329688 q -0.128659,-0.313606 -0.4101,-0.498553 -0.273399,-0.184947 -0.61917,-0.184947 -0.297523,0 -0.474429,0.144741 -0.176905,0.1367 -0.176905,0.361853 0,0.152782 0.08041,0.257318 0.08041,0.09649 0.209071,0.160823 0.128658,0.05629 0.265358,0.09649 l 0.707623,0.20907 q 0.538759,0.152783 0.828241,0.482471 0.289482,0.321646 0.289482,0.771952 0,0.385976 -0.20907,0.683499 -0.20103,0.289483 -0.562882,0.458347 -0.361853,0.160824 -0.844323,0.160824 z"
             style="font-weight:600;font-family:'Plus Jakarta Sans';-inkscape-font-specification:'Plus Jakarta Sans, Semi-Bold'"
             id="path854" />
          <path
             d="m 77.002242,38.650503 q -0.442264,0 -0.779993,-0.152783 -0.329688,-0.160823 -0.514635,-0.434223 -0.184947,-0.281441 -0.184947,-0.659376 0,-0.353811 0.152782,-0.635252 0.160824,-0.281441 0.490512,-0.474429 0.329688,-0.192988 0.82824,-0.2734 l 1.51174,-0.249276 v 0.715664 l -1.334834,0.233194 q -0.361853,0.06433 -0.530717,0.233194 -0.168865,0.160823 -0.168865,0.41814 0,0.249277 0.184947,0.4101 0.192988,0.152782 0.490512,0.152782 0.369893,0 0.643293,-0.160823 0.281441,-0.160823 0.434223,-0.426182 0.152783,-0.2734 0.152783,-0.603088 v -1.117722 q 0,-0.321647 -0.241236,-0.522676 -0.233193,-0.209071 -0.627211,-0.209071 -0.361852,0 -0.635252,0.192988 -0.265359,0.184947 -0.394018,0.48247 l -0.75587,-0.377935 q 0.120618,-0.321646 0.394018,-0.562882 0.2734,-0.249276 0.635252,-0.385976 0.369894,-0.1367 0.779994,-0.1367 0.514635,0 0.908652,0.192988 0.402058,0.192989 0.61917,0.538759 0.225153,0.337729 0.225153,0.788035 v 2.926985 h -0.868447 v -0.788034 l 0.184947,0.02412 q -0.152782,0.265359 -0.394017,0.458347 -0.233194,0.192988 -0.538758,0.297523 -0.297524,0.104536 -0.667418,0.104536 z"
             style="font-weight:600;font-family:'Plus Jakarta Sans';-inkscape-font-specification:'Plus Jakarta Sans, Semi-Bold'"
             id="path856" />
        </g>
      </g>
    </g>
  </g>
</svg>
