<?xml version="1.0" encoding="UTF-8" standalone="no"?>
<!-- Created with Inkscape (http://www.inkscape.org/) -->

<svg
   width="69.209724mm"
   height="9.7324572mm"
   viewBox="0 0 69.209724 9.7324572"
   version="1.1"
   id="svg1"
   inkscape:version="1.3.2 (091e20e, 2023-11-25, custom)"
   sodipodi:docname="ragambahasa_logo_dark.svg"
   xmlns:inkscape="http://www.inkscape.org/namespaces/inkscape"
   xmlns:sodipodi="http://sodipodi.sourceforge.net/DTD/sodipodi-0.dtd"
   xmlns="http://www.w3.org/2000/svg"
   xmlns:svg="http://www.w3.org/2000/svg">
  <sodipodi:namedview
     id="namedview1"
     pagecolor="#ffffff"
     bordercolor="#000000"
     borderopacity="0.25"
     inkscape:showpageshadow="2"
     inkscape:pageopacity="0.0"
     inkscape:pagecheckerboard="0"
     inkscape:deskcolor="#d1d1d1"
     inkscape:document-units="mm"
     inkscape:zoom="2.114039"
     inkscape:cx="150.65947"
     inkscape:cy="125.11595"
     inkscape:window-width="1920"
     inkscape:window-height="1017"
     inkscape:window-x="1912"
     inkscape:window-y="-8"
     inkscape:window-maximized="1"
     inkscape:current-layer="layer1" />
  <defs
     id="defs1" />
  <g
     inkscape:label="Layer 1"
     inkscape:groupmode="layer"
     id="layer1">
    <g
       id="g1"
       transform="translate(-34.660417,-129.91042)">
      <path
         id="path22"
         style="fill:#ffffff;fill-opacity:1;stroke:#ffffff;stroke-width:0.529167;stroke-dasharray:none;stroke-opacity:1"
         d="m 46.49179,137.60273 c 0.337043,0 0.631871,-0.2704 0.661196,-0.60616 l 0.543039,-6.21581 c 0.02933,-0.33577 -0.21854,-0.60576 -0.555583,-0.60576 h -3.944516 c -0.337043,0 -0.631871,0.26999 -0.661196,0.60576 l -0.297821,3.40795 c -0.370219,0.84786 -0.830405,1.15347 -1.179147,1.66998 -0.09873,0.14624 0.495079,0.15752 1.022952,0.11897 l -0.08902,1.01891 c -0.02933,0.33576 0.218539,0.60616 0.555583,0.60616 z"
         sodipodi:nodetypes="sccssccsccss" />
      <text
         xml:space="preserve"
         style="font-size:4.93431px;fill:#e5261f;fill-opacity:1;stroke:#e5261f;stroke-width:0.20718;stroke-linecap:round;stroke-linejoin:round;stroke-dasharray:none;stroke-opacity:1"
         x="57.793758"
         y="135.7269"
         id="text22"
         transform="skewX(-6.1943137)"><tspan
           sodipodi:role="line"
           id="tspan22"
           style="font-style:normal;font-variant:normal;font-weight:normal;font-stretch:normal;font-family:'Plus Jakarta Sans';-inkscape-font-specification:'Plus Jakarta Sans';fill:#e5261f;fill-opacity:1;stroke:#e5261f;stroke-width:0.20718;stroke-linecap:round;stroke-linejoin:round;stroke-dasharray:none;stroke-opacity:1"
           x="57.793758"
           y="135.7269">A</tspan></text>
      <path
         id="path21"
         style="fill:#ffffff;fill-opacity:1;stroke:#ffffff;stroke-width:0.529167;stroke-dasharray:none;stroke-opacity:1"
         d="m 36.131339,131.80923 c -0.337043,0 -0.631871,0.2704 -0.661196,0.60617 l -0.543039,6.21581 c -0.02933,0.33576 0.21854,0.60575 0.555583,0.60575 h 3.944515 c 0.337044,0 0.631871,-0.26999 0.661196,-0.60575 l 0.297822,-3.40796 c 0.551759,-0.64082 1.230674,-1.39762 1.179146,-1.66998 -0.01658,-0.0877 -0.67139,0.0806 -1.022952,-0.11897 l 0.08902,-1.0189 c 0.02933,-0.33577 -0.218539,-0.60617 -0.555583,-0.60617 z"
         sodipodi:nodetypes="sccssccsccss" />
      <path
         d="m 36.633043,135.84438 c 0.139571,-0.84854 0.242976,-1.59204 0.229769,-1.65223 -0.02142,-0.0977 -0.05245,-0.0983 -0.289203,-0.006 -0.310147,0.12126 -0.321555,0.12284 -0.308407,0.0429 0.01335,-0.0812 0.859661,-0.43194 1.042098,-0.43194 0.102744,0 0.147313,0.0605 0.155624,0.21116 0.0064,0.11614 0.01711,0.21064 0.02385,0.20998 0.0067,-6.3e-4 0.299493,-0.11098 0.650632,-0.24517 0.785668,-0.30026 1.014772,-0.31437 1.06839,-0.0658 0.02142,0.0993 -0.08315,0.92285 -0.232378,1.83009 l -0.271325,1.64955 h -0.281552 -0.281553 l 0.218363,-1.32756 c 0.1201,-0.73015 0.222499,-1.47788 0.227523,-1.66161 0.009,-0.32733 0.0046,-0.33333 -0.215,-0.29762 -0.123289,0.02 -0.385314,0.10148 -0.582279,0.18096 l -0.358114,0.14452 -0.243545,1.48065 -0.243546,1.48066 h -0.281553 -0.281555 z"
         style="fill:#e5261f;fill-opacity:1;stroke-width:0.266034"
         id="path23" />
      <g
         id="g27"
         transform="translate(24.584193,99.319808)">
        <text
           xml:space="preserve"
           style="font-size:8.04117px;fill:#f9f9f9;fill-opacity:1;stroke-width:0.670097"
           x="24.538837"
           y="38.554008"
           id="text23"><tspan
             sodipodi:role="line"
             id="tspan23"
             style="font-style:normal;font-variant:normal;font-weight:600;font-stretch:normal;font-size:8.04117px;font-family:'Plus Jakarta Sans';-inkscape-font-specification:'Plus Jakarta Sans, Semi-Bold';font-variant-ligatures:normal;font-variant-caps:normal;font-variant-numeric:normal;font-variant-east-asian:normal;fill:#f9f9f9;fill-opacity:1;stroke-width:0.670097"
             x="24.538837"
             y="38.554008">Ragam</tspan></text>
        <text
           xml:space="preserve"
           style="font-size:8.04117px;fill:#f9f9f9;fill-opacity:1;stroke-width:0.670097"
           x="51.479607"
           y="38.554008"
           id="text24"><tspan
             sodipodi:role="line"
             id="tspan24"
             style="font-style:normal;font-variant:normal;font-weight:600;font-stretch:normal;font-size:8.04117px;font-family:'Plus Jakarta Sans';-inkscape-font-specification:'Plus Jakarta Sans, Semi-Bold';font-variant-ligatures:normal;font-variant-caps:normal;font-variant-numeric:normal;font-variant-east-asian:normal;fill:#f9f9f9;fill-opacity:1;stroke-width:0.670097"
             x="51.479607"
             y="38.554008">Bahasa</tspan></text>
      </g>
    </g>
  </g>
</svg>
