<?xml version="1.0" encoding="UTF-8" standalone="no"?>
<!-- Created with Inkscape (http://www.inkscape.org/) -->

<svg
   width="261.58008"
   height="36.784088"
   viewBox="0 0 69.209727 9.7324566"
   version="1.1"
   id="svg1"
   inkscape:version="1.3.2 (091e20e, 2023-11-25, custom)"
   sodipodi:docname="ragambahasa_logo.svg"
   xmlns:inkscape="http://www.inkscape.org/namespaces/inkscape"
   xmlns:sodipodi="http://sodipodi.sourceforge.net/DTD/sodipodi-0.dtd"
   xmlns="http://www.w3.org/2000/svg"
   xmlns:svg="http://www.w3.org/2000/svg">
  <sodipodi:namedview
     id="namedview1"
     pagecolor="#ffffff"
     bordercolor="#000000"
     borderopacity="0.25"
     inkscape:showpageshadow="2"
     inkscape:pageopacity="0.0"
     inkscape:pagecheckerboard="0"
     inkscape:deskcolor="#d1d1d1"
     inkscape:document-units="px"
     inkscape:zoom="2.9255612"
     inkscape:cx="137.58044"
     inkscape:cy="69.901119"
     inkscape:window-width="1920"
     inkscape:window-height="1017"
     inkscape:window-x="1912"
     inkscape:window-y="-8"
     inkscape:window-maximized="1"
     inkscape:current-layer="layer1" />
  <defs
     id="defs1" />
  <g
     inkscape:label="Layer 1"
     inkscape:groupmode="layer"
     id="layer1"
     transform="translate(-1.0583342,-1.0583335)">
    <g
       id="g1"
       transform="translate(-48.154165,-13.493749)">
      <path
         id="path32"
         style="fill:#e5261f;fill-opacity:1;stroke:#e5261f;stroke-width:0.529167;stroke-dasharray:none;stroke-opacity:1"
         d="m 61.043869,22.244397 c 0.33705,0 0.63187,-0.270399 0.6612,-0.606164 l 0.54304,-6.215808 c 0.0293,-0.335766 -0.21854,-0.605759 -0.55558,-0.605759 h -3.944521 c -0.337043,0 -0.631871,0.269993 -0.661196,0.605759 l -0.297821,3.407951 c -0.370219,0.847863 -0.830405,1.153471 -1.179147,1.669985 -0.09873,0.146233 0.495079,0.157515 1.022952,0.118967 l -0.08902,1.018905 c -0.02933,0.335765 0.218539,0.606164 0.555583,0.606164 z"
         sodipodi:nodetypes="sccssccsccss" />
      <text
         xml:space="preserve"
         style="font-size:4.93431px;fill:#ffffff;fill-opacity:1;stroke:#ffffff;stroke-width:0.20718;stroke-linecap:round;stroke-linejoin:round;stroke-dasharray:none;stroke-opacity:1"
         x="59.8255"
         y="20.368567"
         id="text32"
         transform="skewX(-6.1943137)"><tspan
           sodipodi:role="line"
           id="tspan32"
           style="font-style:normal;font-variant:normal;font-weight:normal;font-stretch:normal;font-family:'Plus Jakarta Sans';-inkscape-font-specification:'Plus Jakarta Sans';fill:#ffffff;fill-opacity:1;stroke:#ffffff;stroke-width:0.20718;stroke-linecap:round;stroke-linejoin:round;stroke-dasharray:none;stroke-opacity:1"
           x="59.8255"
           y="20.368567">A</tspan></text>
      <path
         id="path33"
         style="fill:#e5261f;fill-opacity:1;stroke:#e5261f;stroke-width:0.529167;stroke-dasharray:none;stroke-opacity:1"
         d="m 50.683421,16.450899 c -0.337043,0 -0.631871,0.2704 -0.661196,0.606164 l -0.543039,6.215809 c -0.02933,0.335765 0.21854,0.605759 0.555583,0.605759 h 3.944515 c 0.337044,0 0.631871,-0.269994 0.661196,-0.605759 l 0.297822,-3.407951 c 0.551759,-0.640827 1.230674,-1.397621 1.179146,-1.669986 -0.01658,-0.08767 -0.67139,0.08056 -1.022952,-0.118966 l 0.08902,-1.018906 c 0.02933,-0.335764 -0.218539,-0.606164 -0.555583,-0.606164 z"
         sodipodi:nodetypes="sccssccsccss" />
      <path
         d="m 51.185125,20.486042 c 0.139571,-0.848531 0.242976,-1.592033 0.229769,-1.652225 -0.02142,-0.0977 -0.05245,-0.09832 -0.289203,-0.0058 -0.310147,0.121255 -0.321555,0.122842 -0.308407,0.04291 0.01335,-0.08115 0.859661,-0.431942 1.042098,-0.431942 0.102744,0 0.147313,0.06047 0.155624,0.211165 0.0064,0.11614 0.01711,0.210632 0.02385,0.20998 0.0067,-6.33e-4 0.299493,-0.110979 0.650632,-0.245175 0.785668,-0.300259 1.014772,-0.314371 1.06839,-0.06581 0.02142,0.0993 -0.08315,0.922848 -0.232378,1.830095 l -0.271325,1.649542 H 52.972623 52.69107 l 0.218363,-1.327553 c 0.1201,-0.730154 0.222499,-1.47788 0.227523,-1.661614 0.009,-0.327332 0.0046,-0.333327 -0.215,-0.297618 -0.123289,0.02005 -0.385314,0.101475 -0.582279,0.180959 l -0.358114,0.144517 -0.243545,1.480654 -0.243546,1.480655 h -0.281553 -0.281555 z"
         style="fill:#ffffff;fill-opacity:1;stroke-width:0.266034"
         id="path34" />
      <text
         xml:space="preserve"
         style="font-size:8.04117px;fill:#e5261f;fill-opacity:1;stroke-width:0.670097"
         x="63.67511"
         y="22.515482"
         id="text35"><tspan
           sodipodi:role="line"
           id="tspan35"
           style="font-style:normal;font-variant:normal;font-weight:600;font-stretch:normal;font-size:8.04117px;font-family:'Plus Jakarta Sans';-inkscape-font-specification:'Plus Jakarta Sans, Semi-Bold';font-variant-ligatures:normal;font-variant-caps:normal;font-variant-numeric:normal;font-variant-east-asian:normal;fill:#e5261f;fill-opacity:1;stroke-width:0.670097"
           x="63.67511"
           y="22.515482">Ragam</tspan></text>
      <text
         xml:space="preserve"
         style="font-size:8.04117px;fill:#e5261f;fill-opacity:1;stroke-width:0.670097"
         x="90.615883"
         y="22.515482"
         id="text36"><tspan
           sodipodi:role="line"
           id="tspan36"
           style="font-style:normal;font-variant:normal;font-weight:600;font-stretch:normal;font-size:8.04117px;font-family:'Plus Jakarta Sans';-inkscape-font-specification:'Plus Jakarta Sans, Semi-Bold';font-variant-ligatures:normal;font-variant-caps:normal;font-variant-numeric:normal;font-variant-east-asian:normal;fill:#e5261f;fill-opacity:1;stroke-width:0.670097"
           x="90.615883"
           y="22.515482">Bahasa</tspan></text>
    </g>
  </g>
</svg>
