<?xml version="1.0" encoding="UTF-8" standalone="no"?>
<!-- Created with Inkscape (http://www.inkscape.org/) -->

<svg
   width="261.58008"
   height="36.784088"
   viewBox="0 0 69.209727 9.7324566"
   version="1.1"
   id="svg1"
   inkscape:version="1.1.2 (0a00cf5339, 2022-02-04)"
   sodipodi:docname="ragambahasa_logo_light.svg"
   xmlns:inkscape="http://www.inkscape.org/namespaces/inkscape"
   xmlns:sodipodi="http://sodipodi.sourceforge.net/DTD/sodipodi-0.dtd"
   xmlns="http://www.w3.org/2000/svg"
   xmlns:svg="http://www.w3.org/2000/svg">
  <sodipodi:namedview
     id="namedview1"
     pagecolor="#ffffff"
     bordercolor="#000000"
     borderopacity="0.25"
     inkscape:showpageshadow="2"
     inkscape:pageopacity="0.0"
     inkscape:pagecheckerboard="0"
     inkscape:deskcolor="#d1d1d1"
     inkscape:document-units="px"
     inkscape:zoom="2.9255612"
     inkscape:cx="134.84592"
     inkscape:cy="69.901118"
     inkscape:window-width="1920"
     inkscape:window-height="1029"
     inkscape:window-x="1920"
     inkscape:window-y="0"
     inkscape:window-maximized="1"
     inkscape:current-layer="layer1"
     inkscape:pageshadow="2"
     showgrid="false" />
  <defs
     id="defs1" />
  <g
     inkscape:label="Layer 1"
     inkscape:groupmode="layer"
     id="layer1"
     transform="translate(-1.0583342,-1.0583335)">
    <g
       id="g1"
       transform="translate(-48.154165,-13.493749)">
      <path
         id="path32"
         style="fill:#e5261f;fill-opacity:1;stroke:#e5261f;stroke-width:0.529167;stroke-dasharray:none;stroke-opacity:1"
         d="m 61.043869,22.244397 c 0.33705,0 0.63187,-0.270399 0.6612,-0.606164 l 0.54304,-6.215808 c 0.0293,-0.335766 -0.21854,-0.605759 -0.55558,-0.605759 h -3.944521 c -0.337043,0 -0.631871,0.269993 -0.661196,0.605759 l -0.297821,3.407951 c -0.370219,0.847863 -0.830405,1.153471 -1.179147,1.669985 -0.09873,0.146233 0.495079,0.157515 1.022952,0.118967 l -0.08902,1.018905 c -0.02933,0.335765 0.218539,0.606164 0.555583,0.606164 z"
         sodipodi:nodetypes="sccssccsccss" />
      <g
         aria-label="A"
         transform="skewX(-6.1943137)"
         id="text32"
         style="font-size:4.93431px;fill:#ffffff;stroke:#ffffff;stroke-width:0.20718;stroke-linecap:round;stroke-linejoin:round">
        <path
           d="m 59.879778,20.368567 1.342132,-3.676061 h 0.424351 l 1.342132,3.676061 H 62.573911 L 62.258115,19.470522 H 60.61499 l -0.32073,0.898045 z m 0.863504,-1.268118 h 1.376673 l -0.745081,-2.111885 h 0.118423 z"
           style="font-family:'Plus Jakarta Sans';-inkscape-font-specification:'Plus Jakarta Sans'"
           id="path8631" />
      </g>
      <path
         id="path33"
         style="fill:#e5261f;fill-opacity:1;stroke:#e5261f;stroke-width:0.529167;stroke-dasharray:none;stroke-opacity:1"
         d="m 50.683421,16.450899 c -0.337043,0 -0.631871,0.2704 -0.661196,0.606164 l -0.543039,6.215809 c -0.02933,0.335765 0.21854,0.605759 0.555583,0.605759 h 3.944515 c 0.337044,0 0.631871,-0.269994 0.661196,-0.605759 l 0.297822,-3.407951 c 0.551759,-0.640827 1.230674,-1.397621 1.179146,-1.669986 -0.01658,-0.08767 -0.67139,0.08056 -1.022952,-0.118966 l 0.08902,-1.018906 c 0.02933,-0.335764 -0.218539,-0.606164 -0.555583,-0.606164 z"
         sodipodi:nodetypes="sccssccsccss" />
      <path
         d="m 51.185125,20.486042 c 0.139571,-0.848531 0.242976,-1.592033 0.229769,-1.652225 -0.02142,-0.0977 -0.05245,-0.09832 -0.289203,-0.0058 -0.310147,0.121255 -0.321555,0.122842 -0.308407,0.04291 0.01335,-0.08115 0.859661,-0.431942 1.042098,-0.431942 0.102744,0 0.147313,0.06047 0.155624,0.211165 0.0064,0.11614 0.01711,0.210632 0.02385,0.20998 0.0067,-6.33e-4 0.299493,-0.110979 0.650632,-0.245175 0.785668,-0.300259 1.014772,-0.314371 1.06839,-0.06581 0.02142,0.0993 -0.08315,0.922848 -0.232378,1.830095 l -0.271325,1.649542 H 52.972623 52.69107 l 0.218363,-1.327553 c 0.1201,-0.730154 0.222499,-1.47788 0.227523,-1.661614 0.009,-0.327332 0.0046,-0.333327 -0.215,-0.297618 -0.123289,0.02005 -0.385314,0.101475 -0.582279,0.180959 l -0.358114,0.144517 -0.243545,1.480654 -0.243546,1.480655 h -0.281553 -0.281555 z"
         style="fill:#ffffff;fill-opacity:1;stroke-width:0.266034"
         id="path34" />
      <g
         aria-label="Ragam"
         id="text35"
         style="font-size:8.04117px;fill:#e5261f;stroke-width:0.670097">
        <path
           d="M 64.29428,22.515482 V 16.52481 h 2.179157 q 0.603088,0 1.061435,0.225153 0.458346,0.217112 0.715664,0.643294 0.265358,0.41814 0.265358,1.005146 0,0.61917 -0.313605,1.061434 -0.305565,0.442265 -0.828241,0.643294 l 1.383081,2.412351 h -1.077516 l -1.471535,-2.61338 0.619171,0.361852 h -1.584111 v 2.251528 z m 0.948858,-3.095851 h 1.246381 q 0.329688,0 0.570923,-0.128658 0.241236,-0.128659 0.369894,-0.353812 0.1367,-0.233194 0.1367,-0.546799 0,-0.313606 -0.1367,-0.538759 -0.128658,-0.233194 -0.369894,-0.353811 -0.241235,-0.128659 -0.570923,-0.128659 h -1.246381 z"
           style="font-weight:600;font-family:'Plus Jakarta Sans';-inkscape-font-specification:'Plus Jakarta Sans, Semi-Bold'"
           id="path8634" />
        <path
           d="m 70.767416,22.611976 q -0.442264,0 -0.779993,-0.152782 -0.329688,-0.160824 -0.514635,-0.434223 -0.184947,-0.281441 -0.184947,-0.659376 0,-0.353812 0.152782,-0.635253 0.160824,-0.281441 0.490512,-0.474429 0.329688,-0.192988 0.82824,-0.2734 l 1.51174,-0.249276 v 0.715664 l -1.334834,0.233194 q -0.361853,0.06433 -0.530717,0.233194 -0.168865,0.160823 -0.168865,0.418141 0,0.249276 0.184947,0.4101 0.192988,0.152782 0.490511,0.152782 0.369894,0 0.643294,-0.160824 0.281441,-0.160823 0.434223,-0.426182 0.152782,-0.273399 0.152782,-0.603087 v -1.117723 q 0,-0.321647 -0.241235,-0.522676 -0.233194,-0.20907 -0.627211,-0.20907 -0.361853,0 -0.635252,0.192988 -0.265359,0.184947 -0.394018,0.48247 l -0.75587,-0.377935 q 0.120618,-0.321647 0.394018,-0.562882 0.273399,-0.249276 0.635252,-0.385976 0.369894,-0.1367 0.779994,-0.1367 0.514634,0 0.908652,0.192988 0.402058,0.192988 0.61917,0.538758 0.225153,0.337729 0.225153,0.788035 v 2.926986 h -0.868447 v -0.788035 l 0.184947,0.02412 q -0.152782,0.265358 -0.394017,0.458346 -0.233194,0.192989 -0.538759,0.297524 -0.297523,0.104535 -0.667417,0.104535 z"
           style="font-weight:600;font-family:'Plus Jakarta Sans';-inkscape-font-specification:'Plus Jakarta Sans, Semi-Bold'"
           id="path8636" />
        <path
           d="m 76.211281,24.284539 q -0.474429,0 -0.876487,-0.152782 -0.402059,-0.152782 -0.691541,-0.426182 -0.289482,-0.265358 -0.434223,-0.627211 l 0.836282,-0.34577 q 0.112576,0.305564 0.410099,0.506593 0.305565,0.20103 0.747829,0.20103 0.34577,0 0.61917,-0.1367 0.2734,-0.128659 0.434223,-0.385977 0.160824,-0.249276 0.160824,-0.603087 V 21.33343 l 0.160823,0.184947 q -0.225153,0.418141 -0.627211,0.635252 -0.394017,0.217112 -0.89257,0.217112 -0.603088,0 -1.085558,-0.281441 -0.48247,-0.281441 -0.763911,-0.771952 -0.2734,-0.490512 -0.2734,-1.101641 0,-0.61917 0.2734,-1.10164 0.281441,-0.48247 0.75587,-0.763911 0.474429,-0.281441 1.085558,-0.281441 0.498552,0 0.884529,0.217111 0.394017,0.209071 0.643293,0.611129 l -0.120617,0.225153 v -0.956899 h 0.860405 v 4.149244 q 0,0.562882 -0.2734,1.005146 -0.265359,0.450305 -0.739788,0.707623 -0.474429,0.257317 -1.093599,0.257317 z m -0.04825,-2.758121 q 0.361853,0 0.643294,-0.168865 0.281441,-0.176905 0.442264,-0.466387 0.168865,-0.297524 0.168865,-0.667418 0,-0.369893 -0.168865,-0.667417 -0.168864,-0.297523 -0.450305,-0.466388 -0.281441,-0.176905 -0.635253,-0.176905 -0.369894,0 -0.659376,0.176905 -0.289482,0.168865 -0.458346,0.466388 -0.160824,0.289482 -0.160824,0.667417 0,0.361853 0.160824,0.659376 0.168864,0.297524 0.458346,0.474429 0.289482,0.168865 0.659376,0.168865 z"
           style="font-weight:600;font-family:'Plus Jakarta Sans';-inkscape-font-specification:'Plus Jakarta Sans, Semi-Bold'"
           id="path8638" />
        <path
           d="m 80.682163,22.611976 q -0.442265,0 -0.779994,-0.152782 -0.329688,-0.160824 -0.514635,-0.434223 -0.184947,-0.281441 -0.184947,-0.659376 0,-0.353812 0.152783,-0.635253 0.160823,-0.281441 0.490511,-0.474429 0.329688,-0.192988 0.82824,-0.2734 l 1.51174,-0.249276 v 0.715664 l -1.334834,0.233194 q -0.361852,0.06433 -0.530717,0.233194 -0.168865,0.160823 -0.168865,0.418141 0,0.249276 0.184947,0.4101 0.192988,0.152782 0.490512,0.152782 0.369894,0 0.643293,-0.160824 0.281441,-0.160823 0.434224,-0.426182 0.152782,-0.273399 0.152782,-0.603087 v -1.117723 q 0,-0.321647 -0.241235,-0.522676 -0.233194,-0.20907 -0.627212,-0.20907 -0.361852,0 -0.635252,0.192988 -0.265359,0.184947 -0.394017,0.48247 l -0.75587,-0.377935 q 0.120617,-0.321647 0.394017,-0.562882 0.2734,-0.249276 0.635252,-0.385976 0.369894,-0.1367 0.779994,-0.1367 0.514635,0 0.908652,0.192988 0.402059,0.192988 0.61917,0.538758 0.225153,0.337729 0.225153,0.788035 v 2.926986 h -0.868446 v -0.788035 l 0.184947,0.02412 q -0.152783,0.265358 -0.394018,0.458346 -0.233194,0.192989 -0.538758,0.297524 -0.297524,0.104535 -0.667417,0.104535 z"
           style="font-weight:600;font-family:'Plus Jakarta Sans';-inkscape-font-specification:'Plus Jakarta Sans, Semi-Bold'"
           id="path8640" />
        <path
           d="m 84.027282,22.515482 v -4.350273 h 0.868446 v 0.940817 l -0.112576,-0.144741 q 0.1367,-0.442265 0.498553,-0.667417 0.361852,-0.225153 0.82824,-0.225153 0.522676,0 0.924735,0.281441 0.410099,0.2734 0.546799,0.731746 l -0.257317,0.02412 q 0.192988,-0.522676 0.587005,-0.779994 0.402059,-0.257317 0.916694,-0.257317 0.450305,0 0.812158,0.20907 0.369894,0.209071 0.587005,0.578965 0.217112,0.369893 0.217112,0.844322 v 2.81441 h -0.908652 v -2.565133 q 0,-0.329688 -0.120618,-0.554841 -0.112576,-0.233194 -0.321647,-0.353812 -0.201029,-0.128658 -0.474429,-0.128658 -0.2734,0 -0.48247,0.128658 -0.20907,0.120618 -0.329688,0.353812 -0.120618,0.233194 -0.120618,0.554841 v 2.565133 h -0.900611 v -2.565133 q 0,-0.329688 -0.120617,-0.554841 -0.112576,-0.233194 -0.321647,-0.353812 -0.201029,-0.128658 -0.48247,-0.128658 -0.2734,0 -0.48247,0.128658 -0.209071,0.120618 -0.329688,0.353812 -0.112577,0.233194 -0.112577,0.554841 v 2.565133 z"
           style="font-weight:600;font-family:'Plus Jakarta Sans';-inkscape-font-specification:'Plus Jakarta Sans, Semi-Bold'"
           id="path8642" />
      </g>
      <g
         aria-label="Bahasa"
         id="text36"
         style="font-size:8.04117px;fill:#e5261f;stroke-width:0.670097">
        <path
           d="M 91.235053,22.515482 V 16.52481 h 2.524927 q 0.562882,0 0.972982,0.201029 0.4101,0.192989 0.627211,0.562882 0.217112,0.361853 0.217112,0.860406 0,0.434223 -0.225153,0.796075 -0.217112,0.353812 -0.683499,0.562882 v -0.402058 q 0.410099,0.160823 0.667417,0.410099 0.257317,0.241236 0.369894,0.5468 0.120617,0.305565 0.120617,0.643294 0,0.844323 -0.554841,1.326793 -0.546799,0.48247 -1.503698,0.48247 z m 0.948858,-0.844323 h 1.656481 q 0.474429,0 0.75587,-0.257317 0.281441,-0.265359 0.281441,-0.699582 0,-0.442265 -0.281441,-0.699582 -0.281441,-0.265359 -0.75587,-0.265359 h -1.656481 z m 0,-2.758121 h 1.600193 q 0.385976,0 0.61917,-0.217112 0.233194,-0.225153 0.233194,-0.587005 0,-0.361853 -0.233194,-0.562882 -0.233194,-0.201029 -0.61917,-0.201029 h -1.600193 z"
           style="font-weight:600;font-family:'Plus Jakarta Sans';-inkscape-font-specification:'Plus Jakarta Sans, Semi-Bold'"
           id="path8645" />
        <path
           d="m 98.013755,22.611976 q -0.442265,0 -0.779994,-0.152782 -0.329688,-0.160824 -0.514635,-0.434223 -0.184947,-0.281441 -0.184947,-0.659376 0,-0.353812 0.152783,-0.635253 0.160823,-0.281441 0.490511,-0.474429 0.329688,-0.192988 0.828241,-0.2734 l 1.51174,-0.249276 v 0.715664 l -1.334835,0.233194 q -0.361852,0.06433 -0.530717,0.233194 -0.168864,0.160823 -0.168864,0.418141 0,0.249276 0.184946,0.4101 0.192989,0.152782 0.490512,0.152782 0.369894,0 0.643293,-0.160824 0.281441,-0.160823 0.434224,-0.426182 0.152782,-0.273399 0.152782,-0.603087 v -1.117723 q 0,-0.321647 -0.241235,-0.522676 -0.233194,-0.20907 -0.627212,-0.20907 -0.361852,0 -0.635252,0.192988 -0.265359,0.184947 -0.394017,0.48247 l -0.75587,-0.377935 q 0.120617,-0.321647 0.394017,-0.562882 0.2734,-0.249276 0.635252,-0.385976 0.369894,-0.1367 0.779994,-0.1367 0.514635,0 0.908652,0.192988 0.402059,0.192988 0.619166,0.538758 0.22516,0.337729 0.22516,0.788035 v 2.926986 h -0.868449 v -0.788035 l 0.184947,0.02412 q -0.152783,0.265358 -0.394018,0.458346 -0.233194,0.192989 -0.538758,0.297524 -0.297523,0.104535 -0.667417,0.104535 z"
           style="font-weight:600;font-family:'Plus Jakarta Sans';-inkscape-font-specification:'Plus Jakarta Sans, Semi-Bold'"
           id="path8647" />
        <path
           d="m 101.35887,22.515482 v -6.087166 h 0.90866 v 2.589257 l -0.14474,-0.112576 q 0.16082,-0.4101 0.51463,-0.619171 0.35381,-0.217111 0.8202,-0.217111 0.48247,0 0.85236,0.20907 0.3699,0.209071 0.57897,0.578965 0.20907,0.369893 0.20907,0.844322 v 2.81441 h -0.90061 v -2.565133 q 0,-0.329688 -0.12866,-0.554841 -0.12062,-0.233194 -0.33773,-0.353812 -0.21711,-0.128658 -0.49855,-0.128658 -0.2734,0 -0.49856,0.128658 -0.21711,0.120618 -0.34577,0.353812 -0.12061,0.233194 -0.12061,0.554841 v 2.565133 z"
           style="font-weight:600;font-family:'Plus Jakarta Sans';-inkscape-font-specification:'Plus Jakarta Sans, Semi-Bold'"
           id="path8649" />
        <path
           d="m 107.37366,22.611976 q -0.44227,0 -0.78,-0.152782 -0.32968,-0.160824 -0.51463,-0.434223 -0.18495,-0.281441 -0.18495,-0.659376 0,-0.353812 0.15278,-0.635253 0.16083,-0.281441 0.49052,-0.474429 0.32968,-0.192988 0.82824,-0.2734 l 1.51174,-0.249276 v 0.715664 l -1.33484,0.233194 q -0.36185,0.06433 -0.53072,0.233194 -0.16886,0.160823 -0.16886,0.418141 0,0.249276 0.18495,0.4101 0.19299,0.152782 0.49051,0.152782 0.36989,0 0.64329,-0.160824 0.28144,-0.160823 0.43423,-0.426182 0.15278,-0.273399 0.15278,-0.603087 v -1.117723 q 0,-0.321647 -0.24124,-0.522676 -0.23319,-0.20907 -0.62721,-0.20907 -0.36185,0 -0.63525,0.192988 -0.26536,0.184947 -0.39402,0.48247 l -0.75587,-0.377935 q 0.12062,-0.321647 0.39402,-0.562882 0.2734,-0.249276 0.63525,-0.385976 0.3699,-0.1367 0.77999,-0.1367 0.51464,0 0.90866,0.192988 0.40206,0.192988 0.61917,0.538758 0.22515,0.337729 0.22515,0.788035 v 2.926986 h -0.86845 v -0.788035 l 0.18495,0.02412 q -0.15278,0.265358 -0.39402,0.458346 -0.23319,0.192989 -0.53876,0.297524 -0.29752,0.104535 -0.66741,0.104535 z"
           style="font-weight:600;font-family:'Plus Jakarta Sans';-inkscape-font-specification:'Plus Jakarta Sans, Semi-Bold'"
           id="path8651" />
        <path
           d="m 112.32701,22.611976 q -0.66742,0 -1.17401,-0.329688 -0.49855,-0.329688 -0.69958,-0.884529 l 0.69958,-0.329688 q 0.17691,0.369894 0.48247,0.587006 0.31361,0.217111 0.69154,0.217111 0.32165,0 0.52268,-0.144741 0.20103,-0.144741 0.20103,-0.394017 0,-0.160823 -0.0885,-0.257318 -0.0884,-0.104535 -0.22515,-0.168864 -0.12866,-0.06433 -0.26536,-0.09649 l -0.6835,-0.192988 q -0.56288,-0.160824 -0.84432,-0.48247 -0.2734,-0.329688 -0.2734,-0.763912 0,-0.394017 0.20103,-0.683499 0.20103,-0.297523 0.55484,-0.458347 0.35381,-0.160823 0.79608,-0.160823 0.59504,0 1.06143,0.297523 0.46639,0.289482 0.65938,0.812158 l -0.69958,0.329688 q -0.12866,-0.313605 -0.4101,-0.498552 -0.2734,-0.184947 -0.61917,-0.184947 -0.29753,0 -0.47443,0.144741 -0.17691,0.1367 -0.17691,0.361853 0,0.152782 0.0804,0.257317 0.0804,0.09649 0.20907,0.160823 0.12866,0.05629 0.26536,0.09649 l 0.70762,0.209071 q 0.53876,0.152782 0.82825,0.48247 0.28948,0.321647 0.28948,0.771952 0,0.385977 -0.20907,0.6835 -0.20103,0.289482 -0.56289,0.458347 -0.36185,0.160823 -0.84432,0.160823 z"
           style="font-weight:600;font-family:'Plus Jakarta Sans';-inkscape-font-specification:'Plus Jakarta Sans, Semi-Bold'"
           id="path8653" />
        <path
           d="m 116.13852,22.611976 q -0.44227,0 -0.77999,-0.152782 -0.32969,-0.160824 -0.51464,-0.434223 -0.18495,-0.281441 -0.18495,-0.659376 0,-0.353812 0.15279,-0.635253 0.16082,-0.281441 0.49051,-0.474429 0.32968,-0.192988 0.82824,-0.2734 l 1.51174,-0.249276 v 0.715664 l -1.33484,0.233194 q -0.36185,0.06433 -0.53071,0.233194 -0.16887,0.160823 -0.16887,0.418141 0,0.249276 0.18495,0.4101 0.19299,0.152782 0.49051,0.152782 0.36989,0 0.64329,-0.160824 0.28144,-0.160823 0.43423,-0.426182 0.15278,-0.273399 0.15278,-0.603087 v -1.117723 q 0,-0.321647 -0.24124,-0.522676 -0.23319,-0.20907 -0.62721,-0.20907 -0.36185,0 -0.63525,0.192988 -0.26536,0.184947 -0.39402,0.48247 l -0.75587,-0.377935 q 0.12062,-0.321647 0.39402,-0.562882 0.2734,-0.249276 0.63525,-0.385976 0.3699,-0.1367 0.78,-0.1367 0.51463,0 0.90865,0.192988 0.40206,0.192988 0.61917,0.538758 0.22515,0.337729 0.22515,0.788035 v 2.926986 h -0.86845 v -0.788035 l 0.18495,0.02412 q -0.15278,0.265358 -0.39402,0.458346 -0.23319,0.192989 -0.53875,0.297524 -0.29753,0.104535 -0.66742,0.104535 z"
           style="font-weight:600;font-family:'Plus Jakarta Sans';-inkscape-font-specification:'Plus Jakarta Sans, Semi-Bold'"
           id="path8655" />
      </g>
    </g>
  </g>
</svg>
