<?xml version="1.0" encoding="UTF-8" standalone="no"?>
<!-- Created with Inkscape (http://www.inkscape.org/) -->

<svg
   width="32"
   height="23.07243"
   viewBox="0 0 8.4666661 6.1045803"
   version="1.1"
   id="svg1"
   inkscape:version="1.3.2 (091e20e, 2023-11-25, custom)"
   sodipodi:docname="favicon-32.svg"
   xmlns:inkscape="http://www.inkscape.org/namespaces/inkscape"
   xmlns:sodipodi="http://sodipodi.sourceforge.net/DTD/sodipodi-0.dtd"
   xmlns="http://www.w3.org/2000/svg"
   xmlns:svg="http://www.w3.org/2000/svg">
  <sodipodi:namedview
     id="namedview1"
     pagecolor="#ffffff"
     bordercolor="#000000"
     borderopacity="0.25"
     inkscape:showpageshadow="2"
     inkscape:pageopacity="0.0"
     inkscape:pagecheckerboard="0"
     inkscape:deskcolor="#d1d1d1"
     inkscape:document-units="px"
     inkscape:zoom="5.8511224"
     inkscape:cx="21.107061"
     inkscape:cy="38.197799"
     inkscape:window-width="1920"
     inkscape:window-height="1017"
     inkscape:window-x="1912"
     inkscape:window-y="-8"
     inkscape:window-maximized="1"
     inkscape:current-layer="layer1" />
  <defs
     id="defs1" />
  <g
     inkscape:label="Layer 1"
     inkscape:groupmode="layer"
     id="layer1"
     transform="translate(-1.0583343,-1.0583336)">
    <path
       id="path32"
       style="fill:#e5261f;fill-opacity:1;stroke:#e5261f;stroke-width:0.336805;stroke-dasharray:none;stroke-opacity:1"
       d="m 8.5887851,5.9543512 c 0.2145261,0 0.4021737,-0.172104 0.4208417,-0.3858123 L 9.3552618,1.6122906 C 9.3739108,1.3985817 9.2161651,1.2267361 9.0016453,1.2267361 H 6.4910297 c -0.2145217,0 -0.4021743,0.1718456 -0.4208392,0.3855545 L 5.8806329,3.7813892 c -0.2356376,0.5396493 -0.5285376,0.7341632 -0.7505055,1.062915 -0.06284,0.093075 0.3151087,0.1002554 0.6510902,0.07572 L 5.724558,5.5685389 C 5.70589,5.7822472 5.8636541,5.9543512 6.0781765,5.9543512 Z"
       sodipodi:nodetypes="sccssccsccss" />
    <text
       xml:space="preserve"
       style="font-size:3.1406px;fill:#ffffff;fill-opacity:1;stroke:#ffffff;stroke-width:0.131866;stroke-linecap:round;stroke-linejoin:round;stroke-dasharray:none;stroke-opacity:1"
       x="6.9229217"
       y="4.7604194"
       id="text32"
       transform="skewX(-6.1943137)"><tspan
         sodipodi:role="line"
         id="tspan32"
         style="font-style:normal;font-variant:normal;font-weight:normal;font-stretch:normal;font-family:'Plus Jakarta Sans';-inkscape-font-specification:'Plus Jakarta Sans';fill:#ffffff;fill-opacity:1;stroke:#ffffff;stroke-width:0.131866;stroke-linecap:round;stroke-linejoin:round;stroke-dasharray:none;stroke-opacity:1"
         x="6.9229217"
         y="4.7604194">A</tspan></text>
    <path
       id="path33"
       style="fill:#e5261f;fill-opacity:1;stroke:#e5261f;stroke-width:0.336805;stroke-dasharray:none;stroke-opacity:1"
       d="m 1.9945491,2.2668955 c -0.2145218,0 -0.4021744,0.1721047 -0.4208392,0.3858124 L 1.2280755,6.6089568 c -0.018668,0.2137083 0.1390967,0.3855546 0.3536184,0.3855546 h 2.5106118 c 0.2145223,0 0.4021743,-0.1718463 0.4208392,-0.3855546 L 4.7027031,4.4398582 C 5.0538877,4.0319835 5.4860047,3.550298 5.453208,3.3769426 5.442655,3.3211426 5.0258806,3.4282176 4.8021178,3.3012226 l 0.05666,-0.648515 C 4.8774454,2.4390002 4.7196813,2.2668955 4.5051589,2.2668955 Z"
       sodipodi:nodetypes="sccssccsccss" />
    <path
       d="m 2.3138745,4.8351904 c 0.088834,-0.5400745 0.1546498,-1.0133 0.1462438,-1.0516111 -0.013634,-0.062184 -0.033383,-0.062579 -0.1840725,-0.00369 -0.1974029,0.077177 -0.2046638,0.078187 -0.1962954,0.027311 0.0085,-0.051651 0.5471586,-0.2749232 0.6632764,-0.2749232 0.065395,0 0.093762,0.038488 0.099052,0.1344026 0.00407,0.073921 0.01089,0.1340635 0.01518,0.1336485 0.00426,-4.029e-4 0.1906218,-0.070636 0.4141154,-0.1560494 C 3.7714375,3.4531694 3.917258,3.4441874 3.9513849,3.6023918 3.9650189,3.6655948 3.8984619,4.1897677 3.8034806,4.7672139 L 3.6307871,5.8171162 H 3.4515843 3.272381 L 3.4113651,4.972153 C 3.4878065,4.5074233 3.5529816,4.0315093 3.5561793,3.914566 3.5619076,3.7062252 3.5591071,3.7024095 3.4193357,3.7251376 3.3408645,3.737899 3.1740904,3.7897246 3.0487258,3.8403147 L 2.8207927,3.9322971 2.6657808,4.8747064 2.5107682,5.8171162 H 2.3315649 2.1523603 Z"
       style="fill:#ffffff;fill-opacity:1;stroke-width:0.169326"
       id="path34" />
  </g>
</svg>
